<svg xmlns="http://www.w3.org/2000/svg" width="19.5" height="19.5"><g fill="#ff6332" fill-rule="evenodd"><path data-name="Контур 11" d="M1.5 3.75A2.25 2.25 0 013.75 1.5h12A2.25 2.25 0 0118 3.75v6.47l-3.3-3.3a1.749 1.749 0 00-2.475 0L8.23 10.975l-.934-.892a1.749 1.749 0 00-2.468.007L1.5 13.425zm0 11.8l4.392-4.4a.249.249 0 01.353 0l.013.012 1.474 1.407a.75.75 0 001.052-.016l4.507-4.574a.25.25 0 01.352 0L18 12.337v3.413A2.25 2.25 0 0115.75 18h-12a2.25 2.25 0 01-2.25-2.25zM0 15.239V3.75A3.75 3.75 0 013.75 0h12a3.75 3.75 0 013.75 3.75v12a3.75 3.75 0 01-3.75 3.75h-12A3.75 3.75 0 010 15.75z"/><path data-name="Контур 12" d="M5.204 4.626a1.126 1.126 0 11.021 1.572 1.125 1.125 0 01-.021-1.572z"/></g></svg>