<svg xmlns="http://www.w3.org/2000/svg" width="18.001" height="17.999"><path d="M2.5.005L7-.001a1 1 0 011 1v6a1 1 0 01-1 1H1a1 1 0 01-1-1V2.505a2.5 2.5 0 012.5-2.5zm-1.5 10a1 1 0 00-1 1v4.494a2.5 2.5 0 002.5 2.5H7a1 1 0 001-1v-6a1 1 0 00-1-1l-6 .007zm10 0a1 1 0 00-1 1v5.994a1 1 0 001 1h4.5a2.5 2.5 0 002.5-2.5v-4.5a1 1 0 00-1-1l-6 .007zm0-10a1 1 0 00-1 1v5.994a1 1 0 001 1h6a1 1 0 001-1v-4.5a2.5 2.5 0 00-2.5-2.5H11zM2 15.499a.5.5 0 00.5.5H6v-4l-4 .005zm13.5.5H12v-3.993l4-.007v3.5a.5.5 0 01-.5.5zm-9.5-10v-4H2.5a.5.5 0 00-.5.5v3.5zm10 0h-4V2.006h3.5a.5.5 0 01.5.5z" fill-rule="evenodd"/></svg>