<svg xmlns="http://www.w3.org/2000/svg" width="16.388" height="17.333"><path data-name="svg (2)" d="M12.944 3.106a1.461 1.461 0 01.012-.733l.292-2.188a.171.171 0 01.125-.142 1.375 1.375 0 011.684.972l.259.966.019.072a1.242 1.242 0 01.084.523.5.5 0 01-.154.268 1.242 1.242 0 01-.495.189l-.072.019-.741.2a1.462 1.462 0 01-.725.107.5.5 0 01-.288-.253zm-1.658-2.082a1.463 1.463 0 01-.013.733l-.236 1.772a1.131 1.131 0 01-.08.366.5.5 0 01-.154.175 1.129 1.129 0 01-.352.126l-.125.033a1.461 1.461 0 01-.725.107.5.5 0 01-.288-.253 1.462 1.462 0 01.013-.733l.236-1.772a1.128 1.128 0 01.08-.366.5.5 0 01.154-.175 1.131 1.131 0 01.352-.126l.125-.033A1.462 1.462 0 0111 .771a.5.5 0 01.286.253zM5.933 2.551L5.7 4.322a1.461 1.461 0 00-.013.733.5.5 0 00.288.253 1.461 1.461 0 00.725-.107l.125-.033a1.131 1.131 0 00.352-.126.5.5 0 00.154-.175 1.13 1.13 0 00.08-.366l.236-1.771a1.461 1.461 0 00.012-.733.5.5 0 00-.288-.253 1.461 1.461 0 00-.725.107l-.125.033a1.129 1.129 0 00-.354.122.5.5 0 00-.154.175 1.131 1.131 0 00-.08.37zm-1.906.418a1.462 1.462 0 01-.013.733l-.236 1.771a1.13 1.13 0 01-.08.366.5.5 0 01-.154.175 1.13 1.13 0 01-.352.126l-.722.194H13.9c.259 0 .5 0 .71.017a1.845 1.845 0 011.567 1.031 1.952 1.952 0 01.191.74c.017.208.017.454.017.715V13.2c0 .543 0 1-.031 1.382a3.018 3.018 0 01-.288 1.147 2.805 2.805 0 01-2.411 1.577c-.375.031-.833.031-1.372.031H4.492c-.539 0-1 0-1.372-.031a2.805 2.805 0 01-2.415-1.575 3.018 3.018 0 01-.288-1.147c-.031-.378-.031-.839-.031-1.382V6.333H.4a6.3 6.3 0 01-.071-.254l-.023-.073-.259-.966a1.375 1.375 0 01.972-1.684l1.995-.535a1.461 1.461 0 01.725-.107.5.5 0 01.288.255zm9.846 5.155c.3 0 .47 0 .595.011a.8.8 0 01.085.011.127.127 0 01.035.035.854.854 0 01.01.086c.01.126.011.3.011.6v4.3c0 .588 0 .975-.025 1.271a1.287 1.287 0 01-.1.479 1.147 1.147 0 01-.5.5 1.26 1.26 0 01-.476.1c-.294.024-.678.025-1.262.025H4.527c-.584 0-.968 0-1.262-.025a1.26 1.26 0 01-.476-.1 1.147 1.147 0 01-.5-.5 1.285 1.285 0 01-.1-.479c-.024-.3-.025-.683-.025-1.271v-5.04z" fill-rule="evenodd"/></svg>