<svg xmlns="http://www.w3.org/2000/svg" width="23" height="17.715"><path d="M15.525 0a4.441 4.441 0 00-4.453 4.4 4.453 4.453 0 008.906 0A4.441 4.441 0 0015.525 0zm0 2a2.4 2.4 0 11-2.453 2.4A2.41 2.41 0 0115.525 2zM5.271 4.688a1 1 0 00-.7 1.685l1.353 1.44H1a1 1 0 000 2h4.922l-1.353 1.44a1 1 0 101.455 1.37L8.965 9.5a1 1 0 000-1.37L6.023 5a1 1 0 00-.752-.314zm10.254 4.658a7.435 7.435 0 00-7.473 7.369 1 1 0 001 1H22a1 1 0 001-1 7.438 7.438 0 00-7.474-7.37zm0 2a5.35 5.35 0 015.27 4.369h-10.54a5.351 5.351 0 015.27-4.37z" fill="#fff"/></svg>