<svg xmlns="http://www.w3.org/2000/svg" width="19.5" height="19.5" viewBox="0 0 19.5 19.5">
  <g id="Geek" transform="translate(-6.25 -6.25)">
    <path id="Контур_11" data-name="Контур 11" d="M7.75,10A2.25,2.25,0,0,1,10,7.75H22A2.25,2.25,0,0,1,24.25,10v6.47l-3.3-3.3a1.749,1.749,0,0,0-2.475,0l-3.995,4.055-.934-.892a1.749,1.749,0,0,0-2.468.007L7.75,19.675Zm0,11.8L12.142,17.4a.249.249,0,0,1,.353,0l.013.012,1.474,1.407a.75.75,0,0,0,1.052-.016l4.507-4.574a.25.25,0,0,1,.352,0l4.357,4.358V22A2.25,2.25,0,0,1,22,24.25H10A2.25,2.25,0,0,1,7.75,22Zm-1.5-.311V10A3.75,3.75,0,0,1,10,6.25H22A3.75,3.75,0,0,1,25.75,10V22A3.75,3.75,0,0,1,22,25.75H10A3.75,3.75,0,0,1,6.25,22Z" fill="#ff6332" fill-rule="evenodd"/>
    <path id="Контур_12" data-name="Контур 12" d="M11.454,10.876a1.126,1.126,0,1,1,.021,1.572,1.125,1.125,0,0,1-.021-1.572Z" fill="#ff6332" fill-rule="evenodd"/>
  </g>
</svg>
