<svg xmlns="http://www.w3.org/2000/svg" width="16.388" height="17.333" viewBox="0 0 16.388 17.333">
  <path id="svg_2_" data-name="svg (2)" d="M16.944,6.1a1.461,1.461,0,0,1,.012-.733l.292-2.188a.171.171,0,0,1,.125-.142,1.375,1.375,0,0,1,1.684.972l.259.966.019.072h0a1.242,1.242,0,0,1,.084.523.5.5,0,0,1-.154.268,1.242,1.242,0,0,1-.495.189l-.072.019-.741.2a1.462,1.462,0,0,1-.725.107A.5.5,0,0,1,16.944,6.1ZM15.286,4.018a1.463,1.463,0,0,1-.013.733l-.236,1.772a1.131,1.131,0,0,1-.08.366.5.5,0,0,1-.154.175,1.129,1.129,0,0,1-.352.126l-.125.033a1.461,1.461,0,0,1-.725.107.5.5,0,0,1-.288-.253,1.462,1.462,0,0,1,.013-.733l.236-1.772a1.128,1.128,0,0,1,.08-.366.5.5,0,0,1,.154-.175,1.131,1.131,0,0,1,.352-.126l.125-.033A1.462,1.462,0,0,1,15,3.765.5.5,0,0,1,15.286,4.018ZM9.933,5.545,9.7,7.316h0a1.461,1.461,0,0,0-.013.733.5.5,0,0,0,.288.253,1.461,1.461,0,0,0,.725-.107l.125-.033a1.131,1.131,0,0,0,.352-.126.5.5,0,0,0,.154-.175,1.13,1.13,0,0,0,.08-.366l.236-1.771a1.461,1.461,0,0,0,.012-.733.5.5,0,0,0-.288-.253,1.461,1.461,0,0,0-.725.107l-.125.033A1.129,1.129,0,0,0,10.167,5a.5.5,0,0,0-.154.175A1.131,1.131,0,0,0,9.933,5.545Zm-1.906.418a1.462,1.462,0,0,1-.013.733L7.778,8.467a1.13,1.13,0,0,1-.08.366.5.5,0,0,1-.154.175,1.13,1.13,0,0,1-.352.126l-.722.194H17.9c.259,0,.5,0,.71.017a1.845,1.845,0,0,1,1.567,1.031,1.952,1.952,0,0,1,.191.74c.017.208.017.454.017.715v4.363h0c0,.543,0,1-.031,1.382a3.018,3.018,0,0,1-.288,1.147A2.805,2.805,0,0,1,17.655,20.3c-.375.031-.833.031-1.372.031H8.492c-.539,0-1,0-1.372-.031a2.805,2.805,0,0,1-2.415-1.575,3.018,3.018,0,0,1-.288-1.147c-.031-.378-.031-.839-.031-1.382V9.327H4.4c-.021-.068-.044-.151-.071-.254L4.306,9l-.259-.966a1.375,1.375,0,0,1,.972-1.684l1.995-.535a1.461,1.461,0,0,1,.725-.107A.5.5,0,0,1,8.027,5.963Zm9.846,5.155c.3,0,.47,0,.595.011a.8.8,0,0,1,.085.011.127.127,0,0,1,.035.035.854.854,0,0,1,.01.086c.01.126.011.3.011.6v4.3c0,.588,0,.975-.025,1.271a1.287,1.287,0,0,1-.1.479,1.147,1.147,0,0,1-.5.5,1.26,1.26,0,0,1-.476.1c-.294.024-.678.025-1.262.025H8.527c-.584,0-.968,0-1.262-.025a1.26,1.26,0,0,1-.476-.1,1.147,1.147,0,0,1-.5-.5,1.285,1.285,0,0,1-.1-.479c-.024-.3-.025-.683-.025-1.271v-5.04Z" transform="translate(-4 -2.994)" fill-rule="evenodd"/>
</svg>
