<svg xmlns="http://www.w3.org/2000/svg" width="18.001" height="17.999" viewBox="0 0 18.001 17.999">
  <path id="Geek" d="M5.5,3.006,10,3a1,1,0,0,1,1,1v6a1,1,0,0,1-1,1H4a1,1,0,0,1-1-1V5.506a2.5,2.5,0,0,1,2.5-2.5Zm-1.5,10a1,1,0,0,0-1,1V18.5A2.5,2.5,0,0,0,5.5,21H10a1,1,0,0,0,1-1V14a1,1,0,0,0-1-1l-6,.007Zm10,0a1,1,0,0,0-1,1V20a1,1,0,0,0,1,1h4.5A2.5,2.5,0,0,0,21,18.5V14a1,1,0,0,0-1-1l-6,.007Zm0-10a1,1,0,0,0-1,1V10a1,1,0,0,0,1,1h6a1,1,0,0,0,1-1V5.5A2.5,2.5,0,0,0,18.5,3l-4.5,0ZM5,18.5a.5.5,0,0,0,.5.5H9V15l-4,.005Zm13.5.5H15V15.007L19,15v3.5A.5.5,0,0,1,18.5,19ZM9,9V5l-3.5,0a.5.5,0,0,0-.5.5V9ZM19,9H15V5.007l3.5,0a.5.5,0,0,1,.5.5Z" transform="translate(-3 -3.001)" fill-rule="evenodd"/>
</svg>
