<svg xmlns="http://www.w3.org/2000/svg" width="23" height="17.715" viewBox="0 0 23 17.715">
  <path id="Geek" d="M15.525,3a4.441,4.441,0,0,0-4.453,4.4,4.453,4.453,0,0,0,8.906,0A4.441,4.441,0,0,0,15.525,3Zm0,2a2.4,2.4,0,1,1-2.453,2.4A2.41,2.41,0,0,1,15.525,5ZM5.271,7.688a1,1,0,0,0-.7,1.685l1.353,1.44H1a1,1,0,0,0,0,2H5.922l-1.353,1.44a1,1,0,1,0,1.455,1.37L8.965,12.5a1,1,0,0,0,0-1.37L6.023,8a1,1,0,0,0-.752-.314Zm10.254,4.658a7.435,7.435,0,0,0-7.473,7.369,1,1,0,0,0,1,1H22a1,1,0,0,0,1-1,7.438,7.438,0,0,0-7.474-7.37Zm0,2a5.35,5.35,0,0,1,5.27,4.369H10.255a5.351,5.351,0,0,1,5.27-4.37Z" transform="translate(0 -3)" fill="#fff"/>
</svg>
